<?xml version="1.0" standalone="no"?><svg xmlns="http://www.w3.org/2000/svg" viewBox="0 0 1440 320"><path fill="#0099ff" fill-opacity="1" d="M0,224L40,234.7C80,245,160,267,240,266.7C320,267,400,245,480,218.7C560,192,640,160,720,165.3C800,171,880,213,960,218.7C1040,224,1120,192,1200,202.7C1280,213,1360,267,1400,293.3L1440,320L1440,320L1400,320C1360,320,1280,320,1200,320C1120,320,1040,320,960,320C880,320,800,320,720,320C640,320,560,320,480,320C400,320,320,320,240,320C160,320,80,320,40,320L0,320Z"></path></svg>