<?xml version="1.0" encoding="UTF-8"?>
<svg xmlns="http://www.w3.org/2000/svg" xmlns:xlink="http://www.w3.org/1999/xlink" width="1500px" height="200px" viewBox="0 0 1500 200" version="1.1">
<g id="surface1">
<path style=" stroke:none;fill-rule:nonzero;fill:rgb(0%,60.000002%,100%);fill-opacity:1;" d="M 0 140 L 41.667969 146.6875 C 83.332031 153.125 166.667969 166.875 250 166.6875 C 333.332031 166.875 416.667969 153.125 500 136.6875 C 583.332031 120 666.667969 100 750 103.3125 C 833.332031 106.875 916.667969 133.125 1000 136.6875 C 1083.332031 140 1166.667969 120 1250 126.6875 C 1333.332031 133.125 1416.667969 166.875 1458.332031 183.3125 L 1500 200 L 1500 0 L 1458.332031 0 C 1416.667969 0 1333.332031 0 1250 0 C 1166.667969 0 1083.332031 0 1000 0 C 916.667969 0 833.332031 0 750 0 C 666.667969 0 583.332031 0 500 0 C 416.667969 0 333.332031 0 250 0 C 166.667969 0 83.332031 0 41.667969 0 L 0 0 Z M 0 140 "/>
</g>
</svg>
